<svg width="204" height="29" viewBox="0 0 204 29" fill="none" xmlns="http://www.w3.org/2000/svg">
<g clip-path="url(#clip0_59_3933)">
<path d="M193.2 5.95014H115.476L117.066 3.19711L118.673 0.439941H85.6741L87.2686 3.19711L88.859 5.95014H0.330444V7.37025H21.5075L22.1885 8.58689L22.8654 9.80353L23.9408 11.7261L25.0163 13.6528H11.6498L12.9661 15.9324L14.2866 18.2162L15.607 20.5L16.9399 22.7797H89.922V21.3637H85.6035L84.8478 20.0599L84.0921 18.7519L83.2325 17.2653L82.3771 15.8037H80.7411L81.7169 17.4647L82.6761 19.1256L83.328 20.2551L83.9799 21.3845H71.9754L71.2197 20.0807L70.464 18.7519L69.6044 17.2653L68.7449 15.8037H67.1213L68.0764 17.4647L69.0356 19.1256L69.675 20.2343L70.3228 21.3637H58.3432L57.5875 20.0599L56.8317 18.7519L55.9722 17.2653L55.1168 15.8037H53.4808L54.44 17.4647L55.3992 19.1256L56.0511 20.2551L56.703 21.3845H44.7151L43.9594 20.0807L43.2037 18.7727L42.3441 17.2861L41.4846 15.8037H39.861L40.8161 17.4647L41.7752 19.1256L42.4313 20.2551L43.0999 21.3637H17.7704L16.832 19.79L15.9226 18.2162L15.0132 16.6342L14.1039 15.0604H27.433L26.3617 13.1337L25.2862 11.2361L24.2107 9.31356L23.1394 7.39101H34.9944L35.7543 8.69485L36.5059 9.99039L37.3654 11.4728L38.225 12.9593H39.8527L38.8935 11.2984L37.9343 9.63744L37.2865 8.49969L36.6346 7.37025H48.6308L49.3865 8.67409L50.1589 9.99039L50.9894 11.4645L51.8489 12.951H53.4808L52.5216 11.2901L51.5624 9.62914L50.9105 8.49969L50.2585 7.37025H62.2547L63.0312 8.67409L63.7704 9.99039L64.6257 11.4728L65.4853 12.9593H67.113L66.1538 11.2984L65.1946 9.63744L64.5427 8.508L63.8908 7.37855H75.8787L76.6344 8.6824L77.3901 9.99039L78.2497 11.4728L79.1051 12.9593H80.7411L79.7819 11.2984L78.8227 9.63744L78.1708 8.508L77.5189 7.37855H89.5109L91.6369 11.0534L93.7588 14.7199L95.6772 18.0418L97.5956 21.3637H89.922V22.7797H98.5755L100.369 25.8898L102.167 28.9999L103.961 25.8898L105.759 22.7797H114.409V21.3637H106.735L108.657 18.0418L110.576 14.7199L112.698 11.0451L114.82 7.37025H126.816L126.147 8.49969L125.499 9.62914L124.54 11.2901L123.581 12.951H125.213L126.073 11.4645L126.945 9.99039L127.7 8.6824L128.456 7.37855H140.444L139.792 8.508L139.14 9.63744L138.181 11.2984L137.222 12.9593H138.849L139.709 11.4728L140.564 9.99039L141.32 8.6824L142.08 7.37855H154.076L153.42 8.508L152.768 9.63744L151.813 11.2984L150.85 12.9593H152.477L153.337 11.4728L154.197 9.99039L154.952 8.6824L155.708 7.37855H167.704L167.052 8.508L166.4 9.63744L165.441 11.2984L164.482 12.9593H166.11L166.969 11.4728L167.825 9.99039L168.58 8.6824L169.332 7.37025H181.191L180.128 9.29279L179.048 11.2361L177.973 13.1628L176.898 15.0895H190.231L189.321 16.6342L188.433 18.2162L187.519 19.79L186.61 21.3637H161.28L161.932 20.2343L162.555 19.1256L163.519 17.4647L164.478 15.8037H162.85L161.995 17.2861L161.135 18.7727L160.379 20.0807L159.624 21.3845H147.623L148.275 20.2551L148.927 19.1256L149.886 17.4647L150.846 15.8037H149.218L148.358 17.2861L147.499 18.7727L146.743 20.0807L145.987 21.3845H133.991L134.643 20.2551L135.282 19.1256L136.246 17.4647L137.201 15.8037H135.577L134.718 17.2861L133.871 18.7519L133.115 20.0599L132.376 21.3637H120.371L121.023 20.2343L121.675 19.1256L122.634 17.4647L123.594 15.8037H121.958L121.098 17.2861L120.238 18.7727L119.503 20.0599L118.748 21.3637H114.429V22.7797H187.407L188.728 20.5L190.048 18.2162L191.364 15.9324L192.685 13.6528H179.298L180.373 11.7261L181.444 9.80353L182.125 8.58689L182.802 7.37025H203.979V5.95014H193.183H193.2Z" fill="#28DBD1"/>
</g>
<defs>
<clipPath id="clip0_59_3933">
<rect width="203.67" height="28.56" fill="white" transform="translate(0.330444 0.439941)"/>
</clipPath>
</defs>
</svg>
